M48
INCH,TZ
T1C0.016
T2C0.020
T3C0.022
T4C0.039
T5C0.091
%
G90
G05
T1
X34000Y-41500
X34000Y-42000
X34000Y-42500
X34000Y-43000
X34000Y-43500
X34000Y-44000
X34000Y-48500
X34000Y-49000
X34000Y-49500
X34000Y-50000
X34000Y-50500
X34000Y-51000
X34500Y-41000
X34500Y-48500
X34500Y-51500
X35000Y-41000
X35000Y-48500
X35000Y-51500
X35500Y-41000
X35500Y-51500
X35900Y-49400
X36000Y-41000
X36000Y-51500
X36400Y-49400
X36500Y-41000
X36500Y-51500
X36950Y-44000
X37000Y-41000
X37000Y-51500
X37500Y-41000
X37500Y-51500
X37800Y-48200
X38000Y-41000
X38000Y-51500
X38500Y-41000
X38500Y-51500
X38700Y-43350
X38750Y-47350
X39000Y-41000
X39000Y-51500
X39050Y-43350
X39450Y-43350
X39450Y-46250
X39500Y-41000
X39500Y-51500
X40000Y-41000
X40000Y-51500
X40050Y-46250
X44200Y-46200
X44500Y-41000
X44500Y-51500
X44600Y-46200
X45000Y-41000
X45000Y-51500
X45400Y-43300
X45450Y-45850
X45500Y-41000
X45500Y-51500
X45550Y-47200
X45950Y-49500
X46000Y-41000
X46000Y-51500
X46050Y-47200
X46500Y-41000
X46500Y-42300
X46500Y-51500
X46600Y-46200
X46850Y-43300
X47000Y-41000
X47000Y-51500
X47200Y-42550
X47200Y-42857
X47500Y-41000
X48000Y-41000
X48000Y-43900
X48100Y-42900
X48500Y-41000
X48500Y-43450
X48550Y-51400
X48900Y-43450
X49000Y-41000
X49500Y-41000
X50000Y-41000
X50050Y-41750
X50500Y-41000
X50500Y-51500
X51000Y-41000
X51000Y-51500
X51500Y-41000
X51500Y-51500
X52000Y-41000
X52000Y-51500
X52500Y-41500
X52500Y-42000
X52500Y-42500
X52500Y-43000
X52500Y-43500
X52500Y-44000
X52500Y-44500
X52500Y-45000
X52500Y-45500
X52500Y-46000
X52500Y-46500
X52500Y-47000
X52500Y-47500
X52500Y-48000
X52500Y-48500
X52500Y-49000
X52500Y-49500
X52500Y-50000
X52500Y-50500
X52500Y-51000
T4
X49925Y-45200
X49925Y-46200
X49925Y-47000
X49925Y-48000
T5
X50975Y-44000
X50975Y-49400
T2
X34024Y-44847G85X34280Y-44847
G05
X34024Y-47603G85X34280Y-47603
G05
T3
X35215Y-45181G85X35215Y-45299
G05
X35215Y-47150G85X35215Y-47268
G05
T0
M30
