G04 #@! TF.FileFunction,Copper,L2,Bot,Signal*
%FSLAX46Y46*%
G04 Gerber Fmt 4.6, Leading zero omitted, Abs format (unit mm)*
G04 Created by KiCad (PCBNEW (after 2015-mar-04 BZR unknown)-product) date 15.06.2015 13:23:24*
%MOMM*%
G01*
G04 APERTURE LIST*
%ADD10C,0.100000*%
%ADD11C,1.501140*%
%ADD12C,2.999740*%
%ADD13O,0.950000X1.250000*%
%ADD14O,1.550000X1.000000*%
%ADD15C,0.600000*%
%ADD16C,0.400000*%
%ADD17C,0.250000*%
%ADD18C,0.254000*%
G04 APERTURE END LIST*
D10*
D11*
X126810000Y-114808000D03*
X126810000Y-117348000D03*
X126810000Y-119380000D03*
X126810000Y-121920000D03*
D12*
X129477000Y-111760000D03*
X129477000Y-125476000D03*
D13*
X89446540Y-114910600D03*
X89446540Y-119910600D03*
D14*
X86746540Y-113910600D03*
X86746540Y-120910600D03*
D15*
X101600000Y-130810000D03*
X100330000Y-130810000D03*
X99060000Y-130810000D03*
X97790000Y-130810000D03*
X96520000Y-130810000D03*
X95250000Y-130810000D03*
X92710000Y-130810000D03*
X93980000Y-130810000D03*
X91440000Y-130810000D03*
X90170000Y-130810000D03*
X88900000Y-130810000D03*
X87630000Y-130810000D03*
X86360000Y-129540000D03*
X86360000Y-128270000D03*
X86360000Y-127000000D03*
X86360000Y-125730000D03*
X86360000Y-124460000D03*
X86360000Y-123190000D03*
X87630000Y-123190000D03*
X88900000Y-123190000D03*
X98298000Y-110109000D03*
X99187000Y-110109000D03*
X100203000Y-110109000D03*
X101727000Y-117475000D03*
X100203000Y-117475000D03*
X86360000Y-111760000D03*
X86360000Y-110490000D03*
X86360000Y-109220000D03*
X86360000Y-107950000D03*
X86360000Y-106680000D03*
X86360000Y-105410000D03*
X87630000Y-104140000D03*
X88900000Y-104140000D03*
X90170000Y-104140000D03*
X91440000Y-104140000D03*
X92710000Y-104140000D03*
X93980000Y-104140000D03*
X95250000Y-104140000D03*
X96520000Y-104140000D03*
X97790000Y-104140000D03*
X99060000Y-104140000D03*
X100330000Y-104140000D03*
X101600000Y-104140000D03*
X93853000Y-111760000D03*
X96012000Y-122428000D03*
X91186000Y-125476000D03*
X92456000Y-125476000D03*
X98425000Y-120269000D03*
X116713000Y-125730000D03*
X123317000Y-130556000D03*
X115443000Y-116459000D03*
X115697000Y-119888000D03*
X116967000Y-119888000D03*
X112268000Y-117348000D03*
X113284000Y-117348000D03*
X121920000Y-111506000D03*
X113030000Y-130810000D03*
X118364000Y-117348000D03*
X118110000Y-107442000D03*
X129540000Y-130810000D03*
X130810000Y-130810000D03*
X132080000Y-130810000D03*
X133350000Y-129540000D03*
X133350000Y-128270000D03*
X133350000Y-127000000D03*
X133350000Y-125730000D03*
X133350000Y-124460000D03*
X133350000Y-123190000D03*
X133350000Y-121920000D03*
X133350000Y-120650000D03*
X133350000Y-119380000D03*
X133350000Y-118110000D03*
X133350000Y-116840000D03*
X133350000Y-115570000D03*
X133350000Y-114300000D03*
X133350000Y-113030000D03*
X133350000Y-111760000D03*
X133350000Y-110490000D03*
X133350000Y-107950000D03*
X133350000Y-109220000D03*
X133350000Y-106680000D03*
X133350000Y-105410000D03*
X132080000Y-104140000D03*
X130810000Y-104140000D03*
X129540000Y-104140000D03*
X128270000Y-104140000D03*
X127000000Y-104140000D03*
X125730000Y-104140000D03*
X124460000Y-104140000D03*
X123190000Y-104140000D03*
X121920000Y-104140000D03*
X120650000Y-104140000D03*
X119380000Y-104140000D03*
X118110000Y-104140000D03*
X116840000Y-104140000D03*
X115570000Y-104140000D03*
X114300000Y-104140000D03*
X113030000Y-104140000D03*
X114300000Y-130810000D03*
X115570000Y-130810000D03*
X116840000Y-130810000D03*
X118110000Y-130810000D03*
X119380000Y-130810000D03*
X128270000Y-130810000D03*
X115316000Y-109982000D03*
X127127000Y-106045000D03*
X123190000Y-110363000D03*
X124206000Y-110363000D03*
X119888000Y-108077000D03*
X119888000Y-108858000D03*
X118999000Y-109982000D03*
X122174000Y-108966000D03*
D16*
X101600000Y-130810000D02*
X100330000Y-130810000D01*
X99060000Y-130810000D02*
X97790000Y-130810000D01*
X96520000Y-130810000D02*
X95250000Y-130810000D01*
X92710000Y-130810000D02*
X93980000Y-130810000D01*
X91440000Y-130810000D02*
X90170000Y-130810000D01*
X88900000Y-130810000D02*
X87630000Y-130810000D01*
X86360000Y-129540000D02*
X86360000Y-128270000D01*
X86360000Y-127000000D02*
X86360000Y-125730000D01*
X86360000Y-124460000D02*
X86360000Y-123190000D01*
X87630000Y-123190000D02*
X88900000Y-123190000D01*
X98298000Y-110109000D02*
X99187000Y-110109000D01*
X101727000Y-117475000D02*
X100203000Y-117475000D01*
D17*
X86360000Y-111760000D02*
X86360000Y-110490000D01*
X86360000Y-109220000D02*
X86360000Y-107950000D01*
X86360000Y-106680000D02*
X86360000Y-105410000D01*
X87630000Y-104140000D02*
X88900000Y-104140000D01*
X90170000Y-104140000D02*
X91440000Y-104140000D01*
X92710000Y-104140000D02*
X93980000Y-104140000D01*
X95250000Y-104140000D02*
X96520000Y-104140000D01*
X97790000Y-104140000D02*
X99060000Y-104140000D01*
X100330000Y-104140000D02*
X101600000Y-104140000D01*
X91186000Y-125476000D02*
X92456000Y-125476000D01*
X116713000Y-125730000D02*
X119507000Y-125730000D01*
X119507000Y-125730000D02*
X123317000Y-129540000D01*
X123317000Y-129540000D02*
X123317000Y-130556000D01*
D16*
X115697000Y-119888000D02*
X116713000Y-119888000D01*
X116713000Y-119888000D02*
X116967000Y-119888000D01*
X112567999Y-117647999D02*
X112984001Y-117647999D01*
X112268000Y-117348000D02*
X112567999Y-117647999D01*
X112984001Y-117647999D02*
X113284000Y-117348000D01*
D17*
X113030000Y-130810000D02*
X113665000Y-130810000D01*
X130810000Y-130810000D02*
X132080000Y-130810000D01*
X133350000Y-129540000D02*
X133350000Y-128270000D01*
X133350000Y-127000000D02*
X133350000Y-125730000D01*
X133350000Y-124460000D02*
X133350000Y-123190000D01*
X133350000Y-121920000D02*
X133350000Y-120650000D01*
X133350000Y-119380000D02*
X133350000Y-118110000D01*
X133350000Y-116840000D02*
X133350000Y-115570000D01*
X133350000Y-114300000D02*
X133350000Y-113030000D01*
X133350000Y-111760000D02*
X133350000Y-110490000D01*
X133350000Y-107950000D02*
X133350000Y-109220000D01*
X133350000Y-106680000D02*
X133350000Y-105410000D01*
X132080000Y-104140000D02*
X130810000Y-104140000D01*
X129540000Y-104140000D02*
X128270000Y-104140000D01*
X127000000Y-104140000D02*
X125730000Y-104140000D01*
X124460000Y-104140000D02*
X123190000Y-104140000D01*
X121920000Y-104140000D02*
X120650000Y-104140000D01*
X119380000Y-104140000D02*
X118110000Y-104140000D01*
X116840000Y-104140000D02*
X115570000Y-104140000D01*
X114300000Y-104140000D02*
X113030000Y-104140000D01*
X114300000Y-130810000D02*
X115570000Y-130810000D01*
X116840000Y-130810000D02*
X118110000Y-130810000D01*
X128270000Y-130810000D02*
X129540000Y-130810000D01*
X115824000Y-109982000D02*
X115316000Y-109982000D01*
X116078000Y-109728000D02*
X115824000Y-109982000D01*
X116078000Y-108712000D02*
X116078000Y-109728000D01*
X123190000Y-110363000D02*
X124206000Y-110363000D01*
X119507000Y-108458000D02*
X119888000Y-108077000D01*
X118745000Y-108458000D02*
X119507000Y-108458000D01*
X119888000Y-108858000D02*
X119888000Y-108839000D01*
X118999000Y-109982000D02*
X119380000Y-109601000D01*
X119380000Y-109601000D02*
X121539000Y-109601000D01*
X121539000Y-109601000D02*
X122174000Y-108966000D01*
D18*
G36*
X134432500Y-129944104D02*
X134275125Y-130735282D01*
X133858623Y-131358621D01*
X133235282Y-131775125D01*
X132444104Y-131932500D01*
X131354195Y-131932500D01*
X131354195Y-125104305D01*
X131354195Y-111388305D01*
X131069061Y-110698228D01*
X130541550Y-110169795D01*
X129851970Y-109883457D01*
X129105305Y-109882805D01*
X128415228Y-110167939D01*
X127886795Y-110695450D01*
X127600457Y-111385030D01*
X127599805Y-112131695D01*
X127884939Y-112821772D01*
X128412450Y-113350205D01*
X129102030Y-113636543D01*
X129848695Y-113637195D01*
X130538772Y-113352061D01*
X131067205Y-112824550D01*
X131353543Y-112134970D01*
X131354195Y-111388305D01*
X131354195Y-125104305D01*
X131069061Y-124414228D01*
X130541550Y-123885795D01*
X129851970Y-123599457D01*
X129105305Y-123598805D01*
X128415228Y-123883939D01*
X127937765Y-124360568D01*
X127937765Y-121696697D01*
X127937765Y-119156697D01*
X127766464Y-118742118D01*
X127449551Y-118424650D01*
X127303641Y-118364063D01*
X127447882Y-118304464D01*
X127765350Y-117987551D01*
X127937373Y-117573271D01*
X127937765Y-117124697D01*
X127937765Y-114584697D01*
X127766464Y-114170118D01*
X127449551Y-113852650D01*
X127035271Y-113680627D01*
X126586697Y-113680235D01*
X126172118Y-113851536D01*
X125854650Y-114168449D01*
X125682627Y-114582729D01*
X125682235Y-115031303D01*
X125853536Y-115445882D01*
X126170449Y-115763350D01*
X126584729Y-115935373D01*
X127033303Y-115935765D01*
X127447882Y-115764464D01*
X127765350Y-115447551D01*
X127937373Y-115033271D01*
X127937765Y-114584697D01*
X127937765Y-117124697D01*
X127766464Y-116710118D01*
X127449551Y-116392650D01*
X127035271Y-116220627D01*
X126586697Y-116220235D01*
X126172118Y-116391536D01*
X125854650Y-116708449D01*
X125682627Y-117122729D01*
X125682235Y-117571303D01*
X125853536Y-117985882D01*
X126170449Y-118303350D01*
X126316358Y-118363936D01*
X126172118Y-118423536D01*
X125854650Y-118740449D01*
X125682627Y-119154729D01*
X125682235Y-119603303D01*
X125853536Y-120017882D01*
X126170449Y-120335350D01*
X126584729Y-120507373D01*
X127033303Y-120507765D01*
X127447882Y-120336464D01*
X127765350Y-120019551D01*
X127937373Y-119605271D01*
X127937765Y-119156697D01*
X127937765Y-121696697D01*
X127766464Y-121282118D01*
X127449551Y-120964650D01*
X127035271Y-120792627D01*
X126586697Y-120792235D01*
X126172118Y-120963536D01*
X125854650Y-121280449D01*
X125682627Y-121694729D01*
X125682235Y-122143303D01*
X125853536Y-122557882D01*
X126170449Y-122875350D01*
X126584729Y-123047373D01*
X127033303Y-123047765D01*
X127447882Y-122876464D01*
X127765350Y-122559551D01*
X127937373Y-122145271D01*
X127937765Y-121696697D01*
X127937765Y-124360568D01*
X127886795Y-124411450D01*
X127600457Y-125101030D01*
X127599805Y-125847695D01*
X127884939Y-126537772D01*
X128412450Y-127066205D01*
X129102030Y-127352543D01*
X129848695Y-127353195D01*
X130538772Y-127068061D01*
X131067205Y-126540550D01*
X131353543Y-125850970D01*
X131354195Y-125104305D01*
X131354195Y-131932500D01*
X123994117Y-131932500D01*
X123994117Y-130421927D01*
X123891267Y-130173011D01*
X123819000Y-130100617D01*
X123819000Y-129540005D01*
X123819000Y-129540000D01*
X123819001Y-129540000D01*
X123780788Y-129347893D01*
X123671968Y-129185033D01*
X123671968Y-129185032D01*
X123671964Y-129185029D01*
X122851117Y-128364181D01*
X122851117Y-108831927D01*
X122748267Y-108583011D01*
X122557990Y-108392402D01*
X122309254Y-108289118D01*
X122039927Y-108288883D01*
X121791011Y-108391733D01*
X121600402Y-108582010D01*
X121497118Y-108830746D01*
X121497028Y-108933035D01*
X121331064Y-109099000D01*
X119380000Y-109099000D01*
X119187892Y-109137212D01*
X119122659Y-109180799D01*
X119025032Y-109246032D01*
X119025029Y-109246035D01*
X118966093Y-109304971D01*
X118864927Y-109304883D01*
X118616011Y-109407733D01*
X118425402Y-109598010D01*
X118322118Y-109846746D01*
X118321883Y-110116073D01*
X118424733Y-110364989D01*
X118615010Y-110555598D01*
X118863746Y-110658882D01*
X119133073Y-110659117D01*
X119381989Y-110556267D01*
X119572598Y-110365990D01*
X119675882Y-110117254D01*
X119675894Y-110103000D01*
X121538994Y-110103000D01*
X121539000Y-110103001D01*
X121539000Y-110103000D01*
X121731107Y-110064788D01*
X121893968Y-109955968D01*
X122206906Y-109643028D01*
X122308073Y-109643117D01*
X122556989Y-109540267D01*
X122747598Y-109349990D01*
X122850882Y-109101254D01*
X122851117Y-108831927D01*
X122851117Y-128364181D01*
X119861968Y-125375032D01*
X119699107Y-125266212D01*
X119507000Y-125227999D01*
X119506994Y-125228000D01*
X117168463Y-125228000D01*
X117096990Y-125156402D01*
X116848254Y-125053118D01*
X116578927Y-125052883D01*
X116330011Y-125155733D01*
X116139402Y-125346010D01*
X116036118Y-125594746D01*
X116035883Y-125864073D01*
X116138733Y-126112989D01*
X116329010Y-126303598D01*
X116577746Y-126406882D01*
X116847073Y-126407117D01*
X117095989Y-126304267D01*
X117168382Y-126232000D01*
X119299064Y-126232000D01*
X122815000Y-129747935D01*
X122815000Y-130100536D01*
X122743402Y-130172010D01*
X122640118Y-130420746D01*
X122639883Y-130690073D01*
X122742733Y-130938989D01*
X122933010Y-131129598D01*
X123181746Y-131232882D01*
X123451073Y-131233117D01*
X123699989Y-131130267D01*
X123890598Y-130939990D01*
X123993882Y-130691254D01*
X123994117Y-130421927D01*
X123994117Y-131932500D01*
X111792105Y-131932500D01*
X111480600Y-131620995D01*
X111480600Y-103456005D01*
X111869105Y-103067500D01*
X132444104Y-103067500D01*
X133235282Y-103224874D01*
X133858623Y-103641378D01*
X134275125Y-104264717D01*
X134432500Y-105055895D01*
X134432500Y-129944104D01*
X134432500Y-129944104D01*
G37*
X134432500Y-129944104D02*
X134275125Y-130735282D01*
X133858623Y-131358621D01*
X133235282Y-131775125D01*
X132444104Y-131932500D01*
X131354195Y-131932500D01*
X131354195Y-125104305D01*
X131354195Y-111388305D01*
X131069061Y-110698228D01*
X130541550Y-110169795D01*
X129851970Y-109883457D01*
X129105305Y-109882805D01*
X128415228Y-110167939D01*
X127886795Y-110695450D01*
X127600457Y-111385030D01*
X127599805Y-112131695D01*
X127884939Y-112821772D01*
X128412450Y-113350205D01*
X129102030Y-113636543D01*
X129848695Y-113637195D01*
X130538772Y-113352061D01*
X131067205Y-112824550D01*
X131353543Y-112134970D01*
X131354195Y-111388305D01*
X131354195Y-125104305D01*
X131069061Y-124414228D01*
X130541550Y-123885795D01*
X129851970Y-123599457D01*
X129105305Y-123598805D01*
X128415228Y-123883939D01*
X127937765Y-124360568D01*
X127937765Y-121696697D01*
X127937765Y-119156697D01*
X127766464Y-118742118D01*
X127449551Y-118424650D01*
X127303641Y-118364063D01*
X127447882Y-118304464D01*
X127765350Y-117987551D01*
X127937373Y-117573271D01*
X127937765Y-117124697D01*
X127937765Y-114584697D01*
X127766464Y-114170118D01*
X127449551Y-113852650D01*
X127035271Y-113680627D01*
X126586697Y-113680235D01*
X126172118Y-113851536D01*
X125854650Y-114168449D01*
X125682627Y-114582729D01*
X125682235Y-115031303D01*
X125853536Y-115445882D01*
X126170449Y-115763350D01*
X126584729Y-115935373D01*
X127033303Y-115935765D01*
X127447882Y-115764464D01*
X127765350Y-115447551D01*
X127937373Y-115033271D01*
X127937765Y-114584697D01*
X127937765Y-117124697D01*
X127766464Y-116710118D01*
X127449551Y-116392650D01*
X127035271Y-116220627D01*
X126586697Y-116220235D01*
X126172118Y-116391536D01*
X125854650Y-116708449D01*
X125682627Y-117122729D01*
X125682235Y-117571303D01*
X125853536Y-117985882D01*
X126170449Y-118303350D01*
X126316358Y-118363936D01*
X126172118Y-118423536D01*
X125854650Y-118740449D01*
X125682627Y-119154729D01*
X125682235Y-119603303D01*
X125853536Y-120017882D01*
X126170449Y-120335350D01*
X126584729Y-120507373D01*
X127033303Y-120507765D01*
X127447882Y-120336464D01*
X127765350Y-120019551D01*
X127937373Y-119605271D01*
X127937765Y-119156697D01*
X127937765Y-121696697D01*
X127766464Y-121282118D01*
X127449551Y-120964650D01*
X127035271Y-120792627D01*
X126586697Y-120792235D01*
X126172118Y-120963536D01*
X125854650Y-121280449D01*
X125682627Y-121694729D01*
X125682235Y-122143303D01*
X125853536Y-122557882D01*
X126170449Y-122875350D01*
X126584729Y-123047373D01*
X127033303Y-123047765D01*
X127447882Y-122876464D01*
X127765350Y-122559551D01*
X127937373Y-122145271D01*
X127937765Y-121696697D01*
X127937765Y-124360568D01*
X127886795Y-124411450D01*
X127600457Y-125101030D01*
X127599805Y-125847695D01*
X127884939Y-126537772D01*
X128412450Y-127066205D01*
X129102030Y-127352543D01*
X129848695Y-127353195D01*
X130538772Y-127068061D01*
X131067205Y-126540550D01*
X131353543Y-125850970D01*
X131354195Y-125104305D01*
X131354195Y-131932500D01*
X123994117Y-131932500D01*
X123994117Y-130421927D01*
X123891267Y-130173011D01*
X123819000Y-130100617D01*
X123819000Y-129540005D01*
X123819000Y-129540000D01*
X123819001Y-129540000D01*
X123780788Y-129347893D01*
X123671968Y-129185033D01*
X123671968Y-129185032D01*
X123671964Y-129185029D01*
X122851117Y-128364181D01*
X122851117Y-108831927D01*
X122748267Y-108583011D01*
X122557990Y-108392402D01*
X122309254Y-108289118D01*
X122039927Y-108288883D01*
X121791011Y-108391733D01*
X121600402Y-108582010D01*
X121497118Y-108830746D01*
X121497028Y-108933035D01*
X121331064Y-109099000D01*
X119380000Y-109099000D01*
X119187892Y-109137212D01*
X119122659Y-109180799D01*
X119025032Y-109246032D01*
X119025029Y-109246035D01*
X118966093Y-109304971D01*
X118864927Y-109304883D01*
X118616011Y-109407733D01*
X118425402Y-109598010D01*
X118322118Y-109846746D01*
X118321883Y-110116073D01*
X118424733Y-110364989D01*
X118615010Y-110555598D01*
X118863746Y-110658882D01*
X119133073Y-110659117D01*
X119381989Y-110556267D01*
X119572598Y-110365990D01*
X119675882Y-110117254D01*
X119675894Y-110103000D01*
X121538994Y-110103000D01*
X121539000Y-110103001D01*
X121539000Y-110103000D01*
X121731107Y-110064788D01*
X121893968Y-109955968D01*
X122206906Y-109643028D01*
X122308073Y-109643117D01*
X122556989Y-109540267D01*
X122747598Y-109349990D01*
X122850882Y-109101254D01*
X122851117Y-108831927D01*
X122851117Y-128364181D01*
X119861968Y-125375032D01*
X119699107Y-125266212D01*
X119507000Y-125227999D01*
X119506994Y-125228000D01*
X117168463Y-125228000D01*
X117096990Y-125156402D01*
X116848254Y-125053118D01*
X116578927Y-125052883D01*
X116330011Y-125155733D01*
X116139402Y-125346010D01*
X116036118Y-125594746D01*
X116035883Y-125864073D01*
X116138733Y-126112989D01*
X116329010Y-126303598D01*
X116577746Y-126406882D01*
X116847073Y-126407117D01*
X117095989Y-126304267D01*
X117168382Y-126232000D01*
X119299064Y-126232000D01*
X122815000Y-129747935D01*
X122815000Y-130100536D01*
X122743402Y-130172010D01*
X122640118Y-130420746D01*
X122639883Y-130690073D01*
X122742733Y-130938989D01*
X122933010Y-131129598D01*
X123181746Y-131232882D01*
X123451073Y-131233117D01*
X123699989Y-131130267D01*
X123890598Y-130939990D01*
X123993882Y-130691254D01*
X123994117Y-130421927D01*
X123994117Y-131932500D01*
X111792105Y-131932500D01*
X111480600Y-131620995D01*
X111480600Y-103456005D01*
X111869105Y-103067500D01*
X132444104Y-103067500D01*
X133235282Y-103224874D01*
X133858623Y-103641378D01*
X134275125Y-104264717D01*
X134432500Y-105055895D01*
X134432500Y-129944104D01*
G36*
X102743000Y-131646395D02*
X102456895Y-131932500D01*
X90298540Y-131932500D01*
X90298540Y-120080230D01*
X90298540Y-119740970D01*
X90298540Y-115080230D01*
X90298540Y-114740970D01*
X90233685Y-114414924D01*
X90048995Y-114138515D01*
X89772586Y-113953825D01*
X89446540Y-113888970D01*
X89120494Y-113953825D01*
X88844085Y-114138515D01*
X88659395Y-114414924D01*
X88594540Y-114740970D01*
X88594540Y-115080230D01*
X88659395Y-115406276D01*
X88844085Y-115682685D01*
X89120494Y-115867375D01*
X89446540Y-115932230D01*
X89772586Y-115867375D01*
X90048995Y-115682685D01*
X90233685Y-115406276D01*
X90298540Y-115080230D01*
X90298540Y-119740970D01*
X90233685Y-119414924D01*
X90048995Y-119138515D01*
X89772586Y-118953825D01*
X89446540Y-118888970D01*
X89120494Y-118953825D01*
X88844085Y-119138515D01*
X88659395Y-119414924D01*
X88594540Y-119740970D01*
X88594540Y-120080230D01*
X88659395Y-120406276D01*
X88844085Y-120682685D01*
X89120494Y-120867375D01*
X89446540Y-120932230D01*
X89772586Y-120867375D01*
X90048995Y-120682685D01*
X90233685Y-120406276D01*
X90298540Y-120080230D01*
X90298540Y-131932500D01*
X87921109Y-131932500D01*
X87921109Y-120910600D01*
X87921109Y-113910600D01*
X87854351Y-113574987D01*
X87664242Y-113290467D01*
X87379722Y-113100358D01*
X87044109Y-113033600D01*
X86448971Y-113033600D01*
X86113358Y-113100358D01*
X85828838Y-113290467D01*
X85638729Y-113574987D01*
X85571971Y-113910600D01*
X85638729Y-114246213D01*
X85828838Y-114530733D01*
X86113358Y-114720842D01*
X86448971Y-114787600D01*
X87044109Y-114787600D01*
X87379722Y-114720842D01*
X87664242Y-114530733D01*
X87854351Y-114246213D01*
X87921109Y-113910600D01*
X87921109Y-120910600D01*
X87854351Y-120574987D01*
X87664242Y-120290467D01*
X87379722Y-120100358D01*
X87044109Y-120033600D01*
X86448971Y-120033600D01*
X86113358Y-120100358D01*
X85828838Y-120290467D01*
X85638729Y-120574987D01*
X85571971Y-120910600D01*
X85638729Y-121246213D01*
X85828838Y-121530733D01*
X86113358Y-121720842D01*
X86448971Y-121787600D01*
X87044109Y-121787600D01*
X87379722Y-121720842D01*
X87664242Y-121530733D01*
X87854351Y-121246213D01*
X87921109Y-120910600D01*
X87921109Y-131932500D01*
X87555895Y-131932500D01*
X86764717Y-131775125D01*
X86141378Y-131358623D01*
X85724874Y-130735282D01*
X85567500Y-129944104D01*
X85567500Y-105055895D01*
X85724874Y-104264717D01*
X86141378Y-103641376D01*
X86764717Y-103224874D01*
X87555895Y-103067500D01*
X102379895Y-103067500D01*
X102743000Y-103430605D01*
X102743000Y-131646395D01*
X102743000Y-131646395D01*
G37*
X102743000Y-131646395D02*
X102456895Y-131932500D01*
X90298540Y-131932500D01*
X90298540Y-120080230D01*
X90298540Y-119740970D01*
X90298540Y-115080230D01*
X90298540Y-114740970D01*
X90233685Y-114414924D01*
X90048995Y-114138515D01*
X89772586Y-113953825D01*
X89446540Y-113888970D01*
X89120494Y-113953825D01*
X88844085Y-114138515D01*
X88659395Y-114414924D01*
X88594540Y-114740970D01*
X88594540Y-115080230D01*
X88659395Y-115406276D01*
X88844085Y-115682685D01*
X89120494Y-115867375D01*
X89446540Y-115932230D01*
X89772586Y-115867375D01*
X90048995Y-115682685D01*
X90233685Y-115406276D01*
X90298540Y-115080230D01*
X90298540Y-119740970D01*
X90233685Y-119414924D01*
X90048995Y-119138515D01*
X89772586Y-118953825D01*
X89446540Y-118888970D01*
X89120494Y-118953825D01*
X88844085Y-119138515D01*
X88659395Y-119414924D01*
X88594540Y-119740970D01*
X88594540Y-120080230D01*
X88659395Y-120406276D01*
X88844085Y-120682685D01*
X89120494Y-120867375D01*
X89446540Y-120932230D01*
X89772586Y-120867375D01*
X90048995Y-120682685D01*
X90233685Y-120406276D01*
X90298540Y-120080230D01*
X90298540Y-131932500D01*
X87921109Y-131932500D01*
X87921109Y-120910600D01*
X87921109Y-113910600D01*
X87854351Y-113574987D01*
X87664242Y-113290467D01*
X87379722Y-113100358D01*
X87044109Y-113033600D01*
X86448971Y-113033600D01*
X86113358Y-113100358D01*
X85828838Y-113290467D01*
X85638729Y-113574987D01*
X85571971Y-113910600D01*
X85638729Y-114246213D01*
X85828838Y-114530733D01*
X86113358Y-114720842D01*
X86448971Y-114787600D01*
X87044109Y-114787600D01*
X87379722Y-114720842D01*
X87664242Y-114530733D01*
X87854351Y-114246213D01*
X87921109Y-113910600D01*
X87921109Y-120910600D01*
X87854351Y-120574987D01*
X87664242Y-120290467D01*
X87379722Y-120100358D01*
X87044109Y-120033600D01*
X86448971Y-120033600D01*
X86113358Y-120100358D01*
X85828838Y-120290467D01*
X85638729Y-120574987D01*
X85571971Y-120910600D01*
X85638729Y-121246213D01*
X85828838Y-121530733D01*
X86113358Y-121720842D01*
X86448971Y-121787600D01*
X87044109Y-121787600D01*
X87379722Y-121720842D01*
X87664242Y-121530733D01*
X87854351Y-121246213D01*
X87921109Y-120910600D01*
X87921109Y-131932500D01*
X87555895Y-131932500D01*
X86764717Y-131775125D01*
X86141378Y-131358623D01*
X85724874Y-130735282D01*
X85567500Y-129944104D01*
X85567500Y-105055895D01*
X85724874Y-104264717D01*
X86141378Y-103641376D01*
X86764717Y-103224874D01*
X87555895Y-103067500D01*
X102379895Y-103067500D01*
X102743000Y-103430605D01*
X102743000Y-131646395D01*
M02*
