G04 #@! TF.FileFunction,Soldermask,Top*
%FSLAX46Y46*%
G04 Gerber Fmt 4.6, Leading zero omitted, Abs format (unit mm)*
G04 Created by KiCad (PCBNEW (after 2015-mar-04 BZR unknown)-product) date 15.06.2015 13:23:24*
%MOMM*%
G01*
G04 APERTURE LIST*
%ADD10C,0.100000*%
%ADD11R,1.600000X1.300000*%
%ADD12C,1.901140*%
%ADD13C,3.399740*%
%ADD14R,1.543000X0.908000*%
%ADD15R,1.150000X1.200000*%
%ADD16R,1.200000X1.150000*%
%ADD17R,1.600000X1.400000*%
%ADD18R,2.400000X1.400000*%
%ADD19R,1.900000X1.700000*%
%ADD20R,1.700000X1.900000*%
%ADD21R,0.798780X1.149300*%
%ADD22R,1.149300X0.798780*%
%ADD23R,1.050000X0.750000*%
%ADD24R,1.400000X1.200000*%
%ADD25R,1.750000X0.800000*%
%ADD26O,1.350000X1.650000*%
%ADD27O,1.950000X1.400000*%
%ADD28R,2.000000X1.400000*%
G04 APERTURE END LIST*
D10*
D11*
X120353000Y-106426000D03*
X118153000Y-106426000D03*
D12*
X126810000Y-114808000D03*
X126810000Y-117348000D03*
X126810000Y-119380000D03*
X126810000Y-121920000D03*
D13*
X129477000Y-111760000D03*
X129477000Y-125476000D03*
D14*
X102045000Y-118745000D03*
X102045000Y-120015000D03*
X102045000Y-121285000D03*
X102045000Y-122555000D03*
X102045000Y-123825000D03*
X102045000Y-125095000D03*
X102045000Y-126365000D03*
X102045000Y-127635000D03*
X112205000Y-127635000D03*
X112205000Y-126365000D03*
X112205000Y-125095000D03*
X112205000Y-123825000D03*
X112205000Y-122555000D03*
X112205000Y-121285000D03*
X112205000Y-120015000D03*
X112205000Y-118745000D03*
X102045000Y-107315000D03*
X102045000Y-108585000D03*
X102045000Y-109855000D03*
X102045000Y-111125000D03*
X102045000Y-112395000D03*
X102045000Y-113665000D03*
X102045000Y-114935000D03*
X102045000Y-116205000D03*
X112205000Y-116205000D03*
X112205000Y-114935000D03*
X112205000Y-113665000D03*
X112205000Y-112395000D03*
X112205000Y-111125000D03*
X112205000Y-109855000D03*
X112205000Y-108585000D03*
X112205000Y-107315000D03*
D15*
X98298000Y-107327000D03*
X98298000Y-108827000D03*
D16*
X99048000Y-121920000D03*
X97548000Y-121920000D03*
D15*
X100203000Y-107327000D03*
X100203000Y-108827000D03*
X99949000Y-118757000D03*
X99949000Y-120257000D03*
X100076000Y-114820000D03*
X100076000Y-116320000D03*
X114300000Y-114947000D03*
X114300000Y-116447000D03*
X114300000Y-107327000D03*
X114300000Y-108827000D03*
D11*
X99017000Y-123825000D03*
X96817000Y-123825000D03*
X117940000Y-123063000D03*
X115740000Y-123063000D03*
X125433000Y-106045000D03*
X123233000Y-106045000D03*
X131529000Y-108712000D03*
X129329000Y-108712000D03*
X116543000Y-111125000D03*
X114343000Y-111125000D03*
X115740000Y-124841000D03*
X117940000Y-124841000D03*
X131529000Y-107061000D03*
X129329000Y-107061000D03*
D17*
X120898000Y-129706000D03*
X120898000Y-131406000D03*
X126498000Y-131406000D03*
X126498000Y-129706000D03*
D15*
X116078000Y-107327000D03*
X116078000Y-108827000D03*
X114300000Y-118630000D03*
X114300000Y-120130000D03*
D16*
X115709000Y-121285000D03*
X117209000Y-121285000D03*
X120408000Y-110363000D03*
X121908000Y-110363000D03*
D18*
X123976000Y-109208000D03*
X126976000Y-109208000D03*
X126976000Y-107708000D03*
X123976000Y-107708000D03*
D19*
X92249000Y-115824000D03*
X94949000Y-115824000D03*
D20*
X91821000Y-120951000D03*
X91821000Y-123651000D03*
D19*
X121586000Y-122047000D03*
X124286000Y-122047000D03*
D20*
X123825000Y-111807000D03*
X123825000Y-114507000D03*
D11*
X99017000Y-125476000D03*
X96817000Y-125476000D03*
X99017000Y-127000000D03*
X96817000Y-127000000D03*
X117940000Y-126492000D03*
X115740000Y-126492000D03*
X117940000Y-128143000D03*
X115740000Y-128143000D03*
D21*
X93487240Y-110810040D03*
X92837000Y-110810040D03*
X92186760Y-110810040D03*
X92186760Y-112709960D03*
X92837000Y-112709960D03*
X93487240Y-112709960D03*
D22*
X121539000Y-114584480D03*
X121539000Y-113934240D03*
X121539000Y-113284000D03*
X119639080Y-113284000D03*
X119639080Y-113934240D03*
X119639080Y-114584480D03*
D23*
X120938000Y-109108000D03*
X120938000Y-108458000D03*
X120938000Y-107808000D03*
X118838000Y-107808000D03*
X118838000Y-108458000D03*
X118838000Y-109108000D03*
D24*
X119888000Y-108058000D03*
X119888000Y-108858000D03*
D25*
X89446540Y-116110600D03*
X89446540Y-116760600D03*
X89446540Y-117410600D03*
X89446540Y-118060600D03*
X89446540Y-118710600D03*
D26*
X89446540Y-114910600D03*
X89446540Y-119910600D03*
D27*
X86746540Y-113910600D03*
X86746540Y-120910600D03*
D28*
X93853000Y-117753000D03*
X93853000Y-120753000D03*
X123825000Y-119737000D03*
X123825000Y-116737000D03*
D15*
X119888000Y-118860000D03*
X119888000Y-117360000D03*
M02*
